<?xml version="1.0" encoding="UTF-8" standalone="no"?>
<svg width="28px" height="28px" viewBox="0 0 28 28" version="1.1" xmlns="http://www.w3.org/2000/svg" xmlns:xlink="http://www.w3.org/1999/xlink" xmlns:sketch="http://www.bohemiancoding.com/sketch/ns">
    <!-- Generator: Sketch 3.0.1 (7597) - http://www.bohemiancoding.com/sketch -->
    <title>icon-moon</title>
    <description>Created with Sketch.</description>
    <defs></defs>
    <g id="Symbols" stroke="none" stroke-width="1" fill="none" fill-rule="evenodd" sketch:type="MSPage">
        <g id="Notes" sketch:type="MSArtboardGroup" transform="translate(-929.000000, -72.000000)">
            <g id="icon-moon" sketch:type="MSLayerGroup" transform="translate(929.000000, 72.000000)">
                <path d="M14,28 C21.7319865,28 28,21.7319865 28,14 C28,6.2680135 21.7319865,0 14,0 C6.2680135,0 0,6.2680135 0,14 C0,21.7319865 6.2680135,28 14,28 Z" id="bg" fill="#49098A" sketch:type="MSShapeGroup"></path>
                <path d="M19.6153179,17.003514 L19.5456771,17.1401918 L19.3378152,17.4916671 L19.1082941,17.829397 L18.8580198,18.1520488 L18.5879798,18.4583491 L18.2992399,18.747089 L17.9929396,19.017129 L17.6702878,19.2674034 L17.3325578,19.4969244 L16.9810826,19.7047863 L16.6172491,19.8901687 L16.2424933,20.0523401 L15.8582941,20.1906603 L15.4661679,20.3045835 L15.0676622,20.39366 L14.6643497,20.4575385 L14.2578221,20.4959666 L13.8496837,20.5087929 L13.4415453,20.4959666 L13.0350177,20.4575385 L12.6317051,20.39366 L12.2331994,20.3045835 L11.8410732,20.1906603 L11.4568741,20.0523401 L11.0821183,19.8901687 L10.7182848,19.7047863 L10.3668095,19.4969244 L10.0290795,19.2674034 L9.70642774,19.017129 L9.40012749,18.747089 L9.1113876,18.4583491 L8.8413476,18.1520488 L8.59107321,17.829397 L8.36155216,17.4916671 L8.15369025,17.1401918 L7.96830783,16.7763583 L7.80613652,16.4016025 L7.66781632,16.0174034 L7.55389313,15.6252772 L7.46481654,15.2267714 L7.40093812,14.8234589 L7.36250994,14.4169313 L7.34968367,14.0087929 L7.36250994,13.6006545 L7.40093812,13.1941269 L7.46481654,12.7908144 L7.55389313,12.3923086 L7.66781632,12.0001824 L7.80613652,11.6159833 L7.96830783,11.2412275 L8.15369025,10.877394 L8.36155216,10.5259187 L8.59107321,10.1881888 L8.8413476,9.86553697 L9.1113876,9.55923671 L9.40012749,9.27049683 L9.70642774,9.00045683 L10.0290795,8.75018244 L10.3668095,8.52066139 L10.7182848,8.31279948 L11.0821183,8.12741706 L11.3846821,7.99648601 L11.2689405,8.2236417 L11.1067692,8.5983975 L10.968449,8.98259663 L10.8545258,9.37472283 L10.7654492,9.77322855 L10.7015708,10.1765411 L10.6631426,10.5830687 L10.6503163,10.9912071 L10.6631426,11.3993455 L10.7015708,11.8058731 L10.7654492,12.2091856 L10.8545258,12.6076914 L10.968449,12.9998176 L11.1067692,13.3840167 L11.2689405,13.7587725 L11.4543229,14.122606 L11.6621848,14.4740813 L11.8917059,14.8118112 L12.1419802,15.134463 L12.4120202,15.4407633 L12.7007601,15.7295032 L13.0070604,15.9995432 L13.3297122,16.2498176 L13.6674422,16.4793386 L14.0189174,16.6872005 L14.3827509,16.8725829 L14.7575067,17.0347543 L15.1417059,17.1730745 L15.5338321,17.2869976 L15.9323378,17.3760742 L16.3356503,17.4399527 L16.7421779,17.4783808 L17.1503163,17.4912071 L17.5584547,17.4783808 L17.9649823,17.4399527 L18.3682949,17.3760742 L18.7668006,17.2869976 L19.1589268,17.1730745 L19.5431259,17.0347543 L19.6153179,17.003514 Z" id="moon" fill="#FFFFFF" sketch:type="MSShapeGroup"></path>
            </g>
        </g>
    </g>
</svg>